<?xml version="1.0" encoding="UTF-8" standalone="no"?>
<!-- Created with Inkscape (http://www.inkscape.org/) -->

<svg
   width="35"
   height="35"
   viewBox="0 0 9.2604164 9.2604167"
   version="1.1"
   id="svg1"
   xml:space="preserve"
   inkscape:version="1.4 (86a8ad7, 2024-10-11)"
   sodipodi:docname="TranscriboLogo.svg"
   xmlns:inkscape="http://www.inkscape.org/namespaces/inkscape"
   xmlns:sodipodi="http://sodipodi.sourceforge.net/DTD/sodipodi-0.dtd"
   xmlns="http://www.w3.org/2000/svg"
   xmlns:svg="http://www.w3.org/2000/svg"><sodipodi:namedview
     id="namedview1"
     pagecolor="#505050"
     bordercolor="#eeeeee"
     borderopacity="1"
     inkscape:showpageshadow="0"
     inkscape:pageopacity="0"
     inkscape:pagecheckerboard="0"
     inkscape:deskcolor="#505050"
     inkscape:document-units="px"
     inkscape:zoom="8.1336326"
     inkscape:cx="-16.536277"
     inkscape:cy="7.3153046"
     inkscape:window-width="1920"
     inkscape:window-height="1009"
     inkscape:window-x="1912"
     inkscape:window-y="-8"
     inkscape:window-maximized="1"
     inkscape:current-layer="layer1" /><defs
     id="defs1" /><g
     inkscape:label="Layer 1"
     inkscape:groupmode="layer"
     id="layer1"
     transform="translate(-98.950853,-144.18392)"><g
       id="g1"
       transform="translate(0.13063327,0.65446078)"><path
         fill="none"
         stroke="currentColor"
         stroke-linecap="round"
         stroke-linejoin="round"
         stroke-width="0.529167"
         d="m 107.68542,149.225 v -0.92604 a 1.190625,1.190625 0 0 0 -1.19063,-1.19063 h -0.52917 a 0.396875,0.396875 0 0 1 -0.39687,-0.39687 v -0.52917 a 1.190625,1.190625 0 0 0 -1.19063,-1.19062 h -0.66145 m 0,4.49791 h 2.64583 m -2.64583,1.05834 h 1.32291 m -0.52916,-5.55625 h -1.7198 c -0.21907,0 -0.39687,0.1778 -0.39687,0.39687 v 6.08542 c 0,0.21907 0.1778,0.39687 0.39687,0.39687 h 4.49792 c 0.21908,0 0.39688,-0.1778 0.39688,-0.39687 v -3.30729 a 3.175,3.175 0 0 0 -3.175,-3.175"
         id="path1"
         style="stroke:#22426a;stroke-opacity:1" /><path
         fill="none"
         stroke="currentColor"
         stroke-linecap="round"
         stroke-linejoin="round"
         stroke-width="0.529167"
         d="m 101.33209,150.53664 c 1.169,0 2.11667,-0.94766 2.11667,-2.11666 v -0.52917 m -2.11667,2.64583 c -1.169,-1e-5 -2.11665,-0.94767 -2.116654,-2.11666 v -0.52917 m 2.116654,2.64583 v 1.32292 m -1.3229,0 h 2.64582 m -1.32292,-2.38125 c -0.5845,-1e-5 -1.05832,-0.47383 -1.05832,-1.05833 v -2.91042 c -0.004,-1.41474 2.1203,-1.41474 2.11666,0 v 2.91042 c 0,0.5845 -0.47384,1.05833 -1.05834,1.05833"
         id="path1-4"
         style="stroke:#2583a2;stroke-opacity:1"
         sodipodi:nodetypes="csccsccccccsccsc" /></g></g></svg>
